<svg xmlns="http://www.w3.org/2000/svg" width="51" height="51">
    <path fill="#00A0E2" fill-rule="evenodd" d="M32.441 36.516l-4.622-4.623c.299-.298-.115-1.198-.926-2.008-.401-.401-.824-.705-1.185-.874l3.086-3.086c.168.36.473.783.873 1.185.811.81 1.711 1.225 2.01.925l4.622 4.623c.538.539.538 1.418 0 1.956l-1.902 1.902c-.537.537-1.417.538-1.956 0zm-9.067-7.498l5.428-5.428c.7-.679 1.647-.958 2.548-.833v-.002c1.562.247 3.212-.231 4.415-1.433 1.386-1.386 1.809-3.37 1.269-5.121l-3.171 3.171-2.659-.711-.712-2.66 3.17-3.171c-1.751-.541-3.734-.118-5.12 1.268-1.202 1.202-1.679 2.853-1.433 4.413l-.002.002c.125.916-.164 1.877-.867 2.583l-5.361 5.36c-.705.704-1.666.993-2.583.868l-.001.001c-1.56-.246-3.212.232-4.413 1.432-1.386 1.388-1.808 3.371-1.268 5.122l3.171-3.171 2.659.713.711 2.659-3.17 3.17c1.751.54 3.735.118 5.12-1.268 1.203-1.202 1.681-2.853 1.433-4.415h.002c-.124-.901.154-1.848.834-2.549zm-1.468-5.917l-4.152-4.153-2.266-1.01-1.739-2.871 1.101-1.1 2.871 1.738 1.01 2.265 4.153 4.153-.978.978zm11.99 11.609c.096.097.254.097.35 0l.248-.247c.096-.096.096-.254 0-.351l-4.271-4.271c-.097-.097-.255-.097-.352 0l-.246.247c-.098.097-.098.254 0 .351l4.271 4.271z"/>
    <path fill="none" fill-rule="evenodd" stroke="#00A0E2" stroke-width="2" d="M25 1.375c13.048 0 23.625 10.577 23.625 23.625S38.048 48.625 25 48.625 1.375 38.048 1.375 25 11.952 1.375 25 1.375z"/>
</svg>
