<svg xmlns="http://www.w3.org/2000/svg" width="690" height="574">
    <path fill="#49A5DF" fill-rule="evenodd" d="M150 0h540v417H150V0z"/>
    <path fill="#65B7EB" fill-rule="evenodd" d="M430.577 363.443c-1.976 114.933-97.407 210.108-215.153 209.625C99.359 573.932-4.641 477.11.82 346.934 5.365 238.618 97.586 140.158 221.579 143.01c110.736 2.547 211.178 93.572 208.998 220.433zM217.726 180.368c-96.864-.638-175.223 78.22-179.437 169.363-4.873 105.394 78.739 186.128 175.73 185.959 97.165.991 178.86-80.45 179.379-177.476.512-95.758-76.368-177.191-175.672-177.846zm-1.765 120.218c-16.531.215-29.856-13.163-29.975-30.095-.114-16.207 13.051-29.511 29.354-29.664 16.778-.158 29.987 12.887 30.18 29.806.185 16.181-13.195 29.74-29.559 29.953zm-24.95 51.456c.06-11.48 8.125-21.371 19.258-23.921 15.193-3.479 30.168 8.129 30.222 23.722.115 33.192.099 66.385.007 99.578-.037 13.499-11.251 24.344-24.786 24.338-13.507-.007-24.601-10.879-24.689-24.441-.108-16.596-.026-33.193-.03-49.789-.004-16.496-.068-32.992.018-49.487z"/>
</svg>
