<svg xmlns="http://www.w3.org/2000/svg" width="88" height="85" viewBox="0 0 88 85">
    <path fill="#FFF" d="M83.38 73.989l.037.999.017.533c2.256.215 4.035 2.101 4.066 4.42.032 2.485-1.956 4.526-4.44 4.559-2.486.032-4.527-1.956-4.56-4.44-.03-2.314 1.69-4.242 3.932-4.524l-.014-.515-.037-.992.999-.04zm-.426 2.511c-1.933.026-3.48 1.613-3.454 3.546.026 1.933 1.613 3.48 3.546 3.454 1.933-.026 3.48-1.613 3.454-3.546-.026-1.933-1.613-3.48-3.546-3.454zm.203-6.525l.067 1 .06 1.006-1 .056-.058-1-.067-.992.998-.07zm-.348-3.993l.099.994.091 1.002-.996.086-.09-.993-.099-.986.995-.103zm-.485-3.995l.134.992.126 1-.993.121-.125-.992-.132-.983.99-.138zm-.633-3.979l.172.987.163.995-.988.157-.161-.985-.17-.977.984-.177zm-.788-3.933l.212.979.203.988-.98.196-.201-.977-.21-.969.976-.217zm-.964-3.912l.257.969.246.978-.97.239-.245-.967-.253-.957.965-.262zm-1.149-3.866l.304.957.294.967-.959.285-.29-.955-.3-.945.951-.309zm-1.35-3.812l.354.94.344.95-.943.333-.339-.937-.35-.927.934-.359zm-1.559-3.73l.408.92.396.929-.922.385-.391-.916-.402-.905.911-.412zm-1.756-3.587l.462.892.45.904-.897.439-.444-.89-.455-.878.884-.467zm-2.002-3.51c.234.38.464.763.69 1.15l.337.584-.868.495c-.22-.384-.442-.765-.669-1.143l-.342-.563.852-.524zm-2.235-3.375c.26.364.515.731.767 1.102l.375.56-.833.552c-.245-.369-.492-.733-.743-1.095l-.38-.538.814-.581zm-2.468-3.214c.285.345.566.694.844 1.047l.413.531-.793.61c-.269-.35-.541-.697-.818-1.04l-.417-.51.771-.638zm-2.693-3.03c.31.325.616.653.918.985l.45.5-.747.665c-.293-.33-.59-.656-.89-.978l-.454-.48.723-.691zm-2.904-2.824c.332.301.661.606.986.914l.485.466-.697.717c-.316-.307-.635-.61-.958-.91l-.487-.445.67-.742zM58.71 16.6c.354.277.704.557 1.051.841l.517.43-.643.765c-.337-.283-.677-.562-1.022-.837l-.519-.41.616-.789zm-3.195-2.322c.373.252.742.508 1.107.767l.545.392-.588.809c-.356-.259-.714-.514-1.077-.765l-.547-.374.56-.829zm-3.423-2.149c.389.227.774.457 1.156.69l.57.354-.531.847c-.372-.234-.748-.463-1.127-.69l-.571-.336.503-.865zm-3.552-1.917l.9.458.888.47-.475.88-.874-.462-.886-.452.447-.894zM44.87 8.515l.926.403.915.415-.42.907-.9-.408-.913-.397.392-.92zm-3.761-1.48l.947.35.937.361-.366.93-.924-.355-.935-.345.34-.94zm-3.83-1.272l.964.3.955.31-.316.949-.942-.307-.952-.296.29-.956zM12.377-2.752l.468.884-6.423 3.403 1.04.027-.025 1-1.041-.027 6.244 3.723-.512.859-7.884-4.7-.763-.455.785-.416 8.11-4.298zm21.018 7.436l.977.252.967.262-.267.964-.956-.26-.966-.249.245-.97zm-3.932-.9l.987.21.979.217-.223.975-.968-.216-.976-.206.201-.98zM25.5 3.053l.994.168.986.176-.181.984-.976-.175-.985-.166.162-.987zm-3.988-.576l1 .13.992.138-.143.99-.983-.137-.99-.13.124-.991zm-4.007-.433l1.004.095.995.103-.107.995-.987-.103-.995-.094.09-.996zm-4.016-.3l1.005.063.998.07-.075.998-.99-.07-.997-.063.059-.998zM9.46 1.612l2 .05-.026 1-1.999-.05.025-1z"/>
</svg>
