<svg xmlns="http://www.w3.org/2000/svg" width="27" height="31" viewBox="0 0 27 31">
    <path fill="#FFF" d="M26.67 17.353c0 3.76-1.59 7.347-4.374 9.873-2.786 2.527-6.51 3.76-10.252 3.396-3.744-.366-7.158-2.294-9.403-5.311-2.557-3.46-3.31-7.93-2.028-12.034.148-.497.67-.779 1.167-.632.495.149.778.67.63 1.168-1.11 3.537-.466 7.392 1.734 10.378 2.372 3.189 6.228 4.92 10.187 4.576 3.96-.345 7.458-2.719 9.242-6.269 1.785-3.551 1.602-7.775-.484-11.158-2.086-3.383-5.776-5.443-9.752-5.443H8.514l2.431 2.43c.18.176.283.416.285.666.001.252-.097.493-.275.67-.177.177-.42.277-.67.276-.25-.003-.49-.105-.665-.285L5.59 5.624c-.088-.088-.156-.193-.205-.309l-.004-.014h.001c-.089-.218-.089-.464 0-.684l.005-.014h-.002c.049-.114.117-.219.205-.306L9.62.265c.367-.357.953-.353 1.316.01.362.362.367.948.01 1.315L8.513 4.022h4.823c3.535.004 6.924 1.41 9.422 3.91 2.5 2.5 3.905 5.887 3.91 9.421zm-15.182 3.41c.21-.004.416-.05.606-.138l4.838-2.306c.489-.233.8-.725.8-1.266 0-.54-.311-1.033-.8-1.266l-4.838-2.306c-.434-.206-.944-.175-1.35.081-.41.253-.658.7-.656 1.181v4.613c.003.773.626 1.4 1.4 1.406z"/>
</svg>
