<svg xmlns="http://www.w3.org/2000/svg" width="49" height="54">
    <path fill="#00A0E2" fill-rule="evenodd" d="M45.215 17.06c4.116 7.42 4.662 15.024 1.059 22.729-2.756 5.898-7.313 10.023-13.442 12.199C19.518 56.716 5.812 49.28 1.94 36.527c-2.171-7.15-1.237-13.99 2.919-20.241 4.14-6.226 10.05-9.682 17.469-10.629V3.172h-1.26c-.659 0-1.193-.535-1.193-1.194v-.03c0-.659.534-1.194 1.193-1.194h7.357c.659 0 1.193.535 1.193 1.194 0 .659-.534 1.194-1.193 1.194H27.18v2.544c4.2.463 8.026 1.895 11.486 4.366l1.651-1.333c.512-.414 1.264-.335 1.678.178l4.508 5.58c.413.513.335 1.264-.176 1.679l-1.112.904zm-20.466-6.695c-10.517-.001-19.056 8.526-19.104 18.99-.05 10.638 8.493 19.168 18.785 19.265 10.769.2 19.394-8.559 19.414-19.025.02-10.642-8.51-19.229-19.095-19.23zm13.107 23.884H22.378V13.962c0-.659.534-1.193 1.193-1.193h2.371c.659 0 1.193.534 1.193 1.193v15.503h10.721c.659 0 1.193.535 1.193 1.194v2.396c0 .66-.534 1.194-1.193 1.194z"/>
</svg>
