<svg xmlns="http://www.w3.org/2000/svg" width="40" height="36">
    <path fill="red" fill-rule="evenodd" d="M.793 10.321v7.702c0 .928.735 1.697 1.663 1.703 1.9.013 3.801.006 5.701.006 1.691 0 3.383.009 5.074-.006.4-.004.802-.073 1.199-.135.207-.032.361.009.513.154.871.835 1.512 1.844 2.171 2.84 1.029 1.556 1.962 3.169 2.82 4.827.237.457.356.929.339 1.446-.043 1.279-.09 2.559-.102 3.839-.008.796.345 1.435 1.04 1.833 1.5.858 2.992.814 4.451-.114.342-.218.576-.541.717-.91.519-1.368 1.067-2.729 1.513-4.122.377-1.18.322-2.403.084-3.621-.21-1.074-.369-2.158-.554-3.237-.029-.169.037-.248.204-.251h.177c2.827 0 5.655.005 8.483-.004.913-.003 1.74-.267 2.369-.971.523-.584.762-1.283.815-2.064.048-.696-.14-1.31-.506-1.888-.157-.247-.306-.503-.427-.769-.057-.125-.096-.304-.051-.424.496-1.341.231-2.561-.555-3.706-.045-.064-.091-.128-.139-.19-.105-.136-.123-.285-.06-.442.497-1.236.27-2.388-.403-3.489-.078-.128-.168-.249-.237-.382-.146-.284-.058-.571 0-.859.308-1.518-.034-2.848-1.166-3.936-.57-.547-1.272-.842-2.045-.938-.678-.084-1.362-.155-2.044-.157-4.721-.014-9.443-.001-14.164-.012-1.012-.002-1.925.262-2.763.822-.146.097-.331.142-.504.189-.136.038-.213-.012-.215-.181-.002-.221-.032-.442-.07-.661-.128-.746-.751-1.267-1.513-1.267C9.297.945 5.987.949 2.676.941c-.402-.002-.785.031-1.122.257-.501.336-.759.814-.759 1.421l-.001 7.702H.793zm24.651 10.342l.234 1.394c.218 1.298.425 2.597.657 3.893.173.965.237 1.922.025 2.893-.303 1.391-.866 2.686-1.442 3.976-.124.277-.349.476-.643.567-.712.222-1.412.209-2.089-.138-.291-.149-.426-.386-.419-.713.027-1.293.03-2.586.083-3.878.035-.859-.206-1.623-.645-2.337-1.268-2.067-2.542-4.13-3.819-6.192-.416-.672-.933-1.264-1.564-1.738-.605-.453-1.24-.866-1.865-1.29-.209-.142-.297-.326-.297-.577.003-3.73.002-7.461.002-11.191 0-.35.022-.375.36-.427.555-.086 1.111-.169 1.577-.524.664-.506 1.42-.709 2.249-.709 4.787.006 9.573.002 14.36.005.332.001.667.011.995.059 1.022.15 1.74.702 2.091 1.683.236.658.058 1.368-.505 1.768-.205.145-.404.299-.652.483.152.097.269.206.407.253.889.307 1.454.913 1.711 1.811.203.705-.053 1.391-.673 1.784-.225.143-.464.261-.751.42.167.119.295.267.454.316.754.233 1.28.708 1.597 1.421.26.587.313 1.172-.072 1.73-.218.316-.526.518-.885.647-.129.047-.235.128-.218.287.017.148.112.221.255.256.144.035.29.079.424.142.9.419 1.346 1.15 1.446 2.119.07.683-.247 1.311-.841 1.582-.377.173-.785.226-1.201.226-3.356-.002-6.713-.001-10.069-.001h-.277zm-13.241-2.578c-.147.011-.276.029-.404.029l-8.873.001c-.513 0-.522-.01-.522-.525L2.402 2.856c0-.244.091-.341.319-.341l9.029.003c.452 0 .453 0 .453.449v15.118z"/>
</svg>
