<svg xmlns="http://www.w3.org/2000/svg" width="16" height="27">
    <path fill="#FFF" fill-rule="evenodd" d="M10.171 13.557L8.53 11.813 2.967 5.898c-.577-.614-1.159-1.224-1.731-1.842-.394-.426-.364-.88.059-1.276.724-.676 1.446-1.355 2.165-2.035C3.93.3 4.393.317 4.836.79c1.482 1.578 2.968 3.154 4.453 4.73 1.999 2.122 4.002 4.241 5.997 6.367.91.97.889 2.383-.053 3.395-1.232 1.324-2.479 2.634-3.719 3.951l-6.108 6.491c-.211.224-.42.45-.632.672-.364.382-.845.414-1.229.056-.785-.728-1.561-1.465-2.333-2.206-.321-.308-.349-.766-.054-1.097.44-.497.903-.974 1.358-1.458l7.566-8.034.089-.1z"/>
</svg>
