<svg xmlns="http://www.w3.org/2000/svg" width="39" height="34">
    <path fill="#00A0E2" fill-rule="evenodd" d="M.362 24.702v-7.606c0-.916.728-1.676 1.648-1.682 1.884-.012 3.767-.005 5.651-.005 1.676-.001 3.352-.009 5.029.006.396.003.794.072 1.188.133.205.031.358-.009.509-.153.863-.824 1.499-1.821 2.151-2.804 1.021-1.536 1.945-3.129 2.795-4.766.235-.452.354-.918.336-1.428-.042-1.264-.088-2.527-.101-3.791-.007-.786.343-1.418 1.031-1.81 1.487-.847 2.966-.805 4.412.113.339.214.571.533.71.898.515 1.351 1.058 2.695 1.5 4.07.373 1.166.319 2.373.083 3.576-.208 1.061-.365 2.131-.548 3.196-.029.168.036.245.202.248l.175.001c2.802 0 5.605-.006 8.407.003.906.003 1.726.264 2.349.959.518.577.755 1.267.808 2.039.047.687-.139 1.293-.502 1.864-.156.244-.303.496-.423.759-.057.124-.095.3-.051.419.492 1.325.23 2.529-.55 3.66-.044.063-.089.126-.137.187-.105.134-.122.281-.06.436.493 1.221.267 2.359-.399 3.446-.077.126-.167.246-.235.377-.145.28-.058.564 0 .848.305 1.499-.034 2.813-1.156 3.887-.565.541-1.261.832-2.027.926-.671.083-1.35.154-2.026.156-4.679.013-9.359.001-14.039.011-1.003.003-1.907-.258-2.738-.812-.145-.096-.329-.14-.5-.187-.134-.036-.21.013-.212.18-.003.218-.033.437-.07.652-.126.737-.744 1.251-1.499 1.252-3.282.001-6.564-.004-9.845.005-.398.001-.778-.031-1.112-.255-.497-.331-.752-.803-.752-1.402l-.001-7.606H.362zm24.433-10.213l.232-1.376c.216-1.282.421-2.565.651-3.844.171-.954.235-1.898.025-2.857-.301-1.374-.858-2.653-1.43-3.926-.123-.274-.346-.47-.637-.561-.706-.219-1.4-.206-2.07.137-.289.147-.423.38-.416.703.027 1.277.029 2.555.082 3.831.036.847-.204 1.602-.638 2.307-1.258 2.041-2.521 4.079-3.786 6.115-.412.664-.924 1.248-1.55 1.715-.6.448-1.229.856-1.849 1.275-.206.14-.294.321-.294.57.003 3.683.002 7.367.002 11.05 0 .346.021.37.357.422.55.084 1.101.167 1.562.518.659.499 1.408.7 2.23.699 4.744-.005 9.488-.001 14.232-.005.33 0 .662-.01.987-.058 1.013-.147 1.724-.692 2.073-1.661.233-.65.057-1.351-.501-1.746-.204-.144-.401-.296-.646-.478.15-.095.266-.202.403-.25.882-.302 1.441-.9 1.696-1.788.201-.696-.052-1.373-.667-1.761-.223-.141-.46-.258-.744-.415.165-.118.292-.264.45-.312.747-.23 1.269-.699 1.582-1.404.258-.578.31-1.156-.071-1.708-.215-.312-.521-.511-.877-.639-.128-.046-.233-.126-.216-.283.016-.146.111-.218.252-.252.144-.036.288-.079.421-.141.892-.414 1.333-1.135 1.433-2.092.07-.674-.244-1.295-.833-1.563-.374-.17-.778-.223-1.19-.223-3.327.002-6.654.001-9.981.001h-.274zm-13.124 2.546c-.146-.011-.273-.028-.401-.028-2.931-.002-5.863-.002-8.794-.002-.508 0-.518.01-.518.518l-.002 14.551c0 .241.091.337.317.337l8.949-.004c.448 0 .449 0 .449-.443V17.259v-.224z"/>
</svg>
