<svg xmlns="http://www.w3.org/2000/svg" width="239" height="103">   
    
    <text font-size="72.676" font-weight="bold" transform="matrix(.49491 0 0 .49535 15.76 101.616)">
        tamamladınız
    </text>
    <text font-size="71.756" font-weight="bold" transform="matrix(1.03037 0 0 1.03128 88.759 59.735)">
        Testi
    </text>
    <path fill="#49A5DF" fill-rule="evenodd" d="M62.413 56.691c-5.226 6.723-12.123 10.927-20.448 12.587-10.606 2.115-20.278-.22-28.761-6.912C6.443 57.033 2.288 49.989.663 41.518.251 39.369.147 37.16.01 35.933c.133-9.673 2.958-17.356 8.67-23.93C13.9 5.997 20.452 2.23 28.248.705c8.5-1.663 16.539-.291 24.095 3.93 1.604.896 2.145 2.754 1.295 4.336-.826 1.538-2.688 2.113-4.298 1.249-2.08-1.118-4.205-2.113-6.485-2.751-3.35-.938-6.754-1.294-10.229-.996-4.558.392-8.821 1.711-12.69 4.156-6.87 4.342-11.283 10.481-12.984 18.449-1.644 7.702-.304 14.943 3.977 21.544 4.418 6.813 10.691 11.045 18.661 12.569 8.092 1.547 15.566-.158 22.228-4.989 5.888-4.271 9.57-10.065 11.146-17.182.632-2.851.793-5.735.515-8.638-.099-1.03-.269-2.055-.451-3.074-.318-1.783.747-3.389 2.523-3.75 1.704-.347 3.404.798 3.73 2.573 1.94 10.536-.294 20.104-6.868 28.56zm.771-37.394C54.357 28.13 45.528 36.961 36.699 45.79c-1.271 1.27-2.619 1.574-3.966.861-.357-.189-.686-.457-.973-.744-3.94-3.929-7.872-7.865-11.801-11.804-1.241-1.243-1.286-3.106-.122-4.399 1.151-1.28 3.079-1.46 4.373-.288 1.338 1.211 2.578 2.53 3.855 3.809 1.921 1.924 3.837 3.854 5.756 5.78.1.101.208.192.453.417.122-.19.21-.4.358-.549 8.049-8.067 16.106-16.127 24.151-24.197.764-.766 1.618-1.195 2.718-1.124 1.254.08 2.105.737 2.629 1.826.533 1.11.378 2.191-.313 3.193-.181.263-.406.499-.633.726z"/>
</svg>