<svg xmlns="http://www.w3.org/2000/svg" width="19" height="31"><defs><filter id="a"><feColorMatrix in="SourceGraphic" values="0 0 0 0 1.000000 0 0 0 0 1.000000 0 0 0 0 1.000000 0 0 0 1.000000 0"/></filter><filter id="b" width="166.7%" height="133.3%" x="-33.3%" y="-16.7%" filterUnits="objectBoundingBox"><feOffset dy="1" in="SourceAlpha" result="shadowOffsetOuter1"/><feGaussianBlur in="shadowOffsetOuter1" result="shadowBlurOuter1" stdDeviation=".5"/><feColorMatrix in="shadowBlurOuter1" result="shadowMatrixOuter1" values="0 0 0 0 0 0 0 0 0 0 0 0 0 0 0 0 0 0 0.22 0"/><feMerge><feMergeNode in="shadowMatrixOuter1"/><feMergeNode in="SourceGraphic"/></feMerge></filter></defs><g fill="none" fill-rule="evenodd" filter="url(#a)" transform="translate(-18 -5)"><g filter="url(#b)" transform="translate(21.7 8.4)"><path fill="#000" fill-rule="nonzero" d="M10.272.303c.785.143 1.24 1.266 1.014 2.508-.224 1.243-1.043 2.137-1.828 1.994-.785-.142-1.24-1.265-1.015-2.507C8.668 1.054 9.487.16 10.272.303m-3.324.831c.595.06 1.001.86.906 1.786-.094.926-.654 1.628-1.248 1.567-.595-.061-1.002-.86-.907-1.787.094-.926.653-1.628 1.249-1.566m-2.569.505c1.238.126.945 3-.293 2.875-1.237-.127-.944-3 .293-2.875M3.098 4.055c.082 1.523-1.36 1.6-1.443.078-.082-1.523 1.36-1.6 1.443-.078M1.564 5.083C1.634 6.366.37 6.434.3 5.151c-.07-1.281 1.193-1.35 1.263-.068m8.881 2.05c-.09-.903-1.144-1.715-2.558-1.896-.12 0-.21-.03-.332-.03-.09-.031-.21-.031-.331-.06-.301-.031-.602-.031-.873-.031C2.227 4.875.571 8.426.512 9.36c-.27.994.27 3.612.27 3.612l1.715 5.237c-.12.903-.06 1.625.06 2.227.12.873.602 1.656 1.324 2.138l.03.03.031.03c.27.182.483.242.483.242.27.12.57.181.903.21 1.655.12 3.1-1.173 3.22-2.86a3.044 3.044 0 00-.934-2.407c-2.678-3.492-.843-5.569-.843-5.569 3.554-2.107 3.974-3.973 3.673-5.117z"/></g></g></svg>