<svg xmlns="http://www.w3.org/2000/svg" width="17" height="17" viewBox="0 0 17 17">
    <path fill="#827586" d="M8.505 0C3.799 0 0 3.8 0 8.505c0 4.706 3.8 8.505 8.505 8.505 4.706 0 8.505-3.8 8.505-8.505C17.01 3.799 13.21 0 8.505 0zm2.665 9.582l1.077 1.077c.492.492.492 1.286 0 1.777-.491.491-1.285.491-1.776 0l-1.077-1.078c-.492-.491-1.285-.491-1.776 0L6.54 12.436c-.492.491-1.286.491-1.777 0-.491-.492-.491-1.286 0-1.777l1.077-1.077c.492-.492.492-1.285 0-1.776L4.764 6.729c-.491-.492-.491-1.286 0-1.777.492-.491 1.286-.491 1.777 0L7.618 6.03c.491.491 1.285.491 1.776 0l1.077-1.078c.492-.491 1.285-.491 1.776 0 .492.492.492 1.286 0 1.777L11.17 7.806c-.491.49-.491 1.285 0 1.776z" opacity=".5"/>
</svg>
