<svg xmlns="http://www.w3.org/2000/svg" width="91" height="129" viewBox="0 0 91 129">
    <path fill="#FFF" stroke="#00368A" d="M713.2 376.2L710.3 379 708.7 383.1 706.1 394.9 704.5 399.1 703.9 403.5 703.8 405.5 704.1 408.6 705.8 412.7 705.6 415.4 703.9 417.1 702.9 417.6 701.5 419.5 697.5 419.5 692.6 419.8 690.2 423.9 687.2 430.7 683.7 439.2 683.7 444.3 685.3 449.1 686.4 449 689.8 449.7 691.3 450.9 691.7 451.8 692.3 455.5 691.5 458.8 690.1 462.8 688.9 462.4 687.8 462.1 686.8 462.8 682.5 467.7 682.5 470.4 683.4 471.7 681.3 474.2 680.6 474.8 679.8 475 679.3 475.5 677.5 477.5 676.7 478.1 674.7 478.6 670.4 478.8 668.5 479.5 667.9 480.1 667.3 481.3 666.9 481.3 666.8 480.7 666.4 480.4 665.9 481.4 665.1 482.2 664.6 483 664.9 484 665.7 482.9 666.9 483.3 667.1 482.2 667.5 482.5 667.8 483.1 668.1 482.1 667.8 481.3 668.5 480.9 668.8 481.2 669 481.9 669.4 482.2 670 482 671 481.5 671.7 481.7 668.6 483.2 667.2 484.3 666.4 485.8 666.5 486.5 667.2 486 669.5 483.3 670.2 482.8 671 482.6 669 484.6 668.7 485.2 668.3 486.3 668 486.9 667.7 487.5 667.7 489.1 667.2 489.4 666.7 489.5 666 490.1 665.5 490.2 663.8 490.3 663.1 490.2 661.5 488.7 661 488.4 660.3 488.6 659.8 489.1 659.7 489.6 660.2 489.7 662.4 490.6 660.2 490 658 489.8 657.5 489.9 656.3 490.6 655.8 491.3 655.4 491.6 654.2 492 652.9 493.1 652.2 493.1 651.4 491.8 650.1 491.3 636.9 483.3 635.5 482.8 633.8 481.7 632.8 481.3 631.3 481.2 631.3 481.1 634.1 479.2 636.3 478.6 638.2 476.8 638.4 475 638.2 473.2 637.5 469.5 637.5 465.8 639 461.7 637 459.7 633.8 459.8 631.4 458 630.2 454.2 630 447.5 627.5 445.6 625.6 441.9 623.9 438 623.8 434.9 624 433.5 625.3 431.4 626.2 430.8 626.9 430 627.7 427.2 627.3 425.4 626 422.1 625.8 418.8 627.4 416.4 630.1 416.6 632.8 417.4 637.9 416.6 644.7 409.7 653.7 410.4 658.4 411.6 664.8 414.1 667.6 412.8 666.4 400.7 685.8 387.4 688.6 383.5 690.8 378.9 692.3 376.9 694.5 371.4 696.8 369.5 700.8 367.2 705 366.1 707.7 367.3 709.7 370.4 711 373.9 713.2 376.2z" transform="translate(-623 -365)"/>
</svg>
