<svg xmlns="http://www.w3.org/2000/svg" width="98" height="75" viewBox="0 0 98 75">
    <path fill="#FFF" stroke="#00368A" d="M23.5 8.1l-.6.3-.2-.5.4-1.9-.2-1.1.9-.3.5.3.1.3-.3.3-.6 2.6h0zM97 6.8l-2.8 1.5-1.1.9-1 1.1-1 1.9-.2 2.2-.6 1.9-.6 1.6.2 2.2 1.2 1.5.2 1.8-.9 1.9-5 5.3-1.5 6.9.1 3.4 2.7 3.9 1.4 1.1.7 3.4-2.6 1-2.9-.6-1.6.2-1.5.7-1.7.3-1.6-.2-5.5-2.2-2.6 1.9-1.1 4-.6 1.6-1 1.1-1.5 5.4-2.4 1.8-1.1 3.1-.3 4.5-2.9 1.8-3.7.1-3.7-.5-2.3-.5-2-1.6-1.2-1.3-1.6-.8L41 69l-2.4.5-2.1-.3-1.3-2-.7-.5-1-.1-.6-.4-.3-.8-1-1.7-.1-1.8.2-1.4-.8-1.2-1.3.7-1.2 1.1-4.1-.5-13.8-10.2-.9-2.1-1-4.8-.9-1.7-2.9-2-1.9-3.1-.9-2.5-.3-1.4.7-2.6.7-1.1.5-1.2-1-2.2-1.2-.4L1 23l1.4-1.4 1.5-1.3 2.5-3.8.3-.5 7.3-.3 2.7.4 4.5-.1-1 .3-.3.5-.2.6 2.2-.8h2.4l2.4.6 2.4 1.1.3-.4.7.4.5-.2.5-.5.4-.2 3-.5.8-.7.8-.4 1 .1 1.8.6 1.5.1 1.5.3.7.3 1.3.8.9.3.9.2 4-.1.9-.2.8-.6.4-.9.5-1.8.3-.8.7.3.9-.1.9-.3.8-.4-1-1.1-1.1-1.1-1.3-.8-1.1-.3h-2.9l-.4.3-1.2.9-.1-7.4 3.6.9 1.6-.2 8 3.5 3.3-.7 3.3-3.5 3.3.7 2.9.9 3.1-.2 9.6-3.6 3.6-.7 7.1 2.6.3 1.6.5 1.4h0z"/>
</svg>
