<svg xmlns="http://www.w3.org/2000/svg" width="85" height="59" viewBox="0 0 85 59">
    <path fill="#FFF" stroke="#00368A" d="M793.2 434.2L792.3 434.4 791.5 434.3 790.6 434.3 789.8 434.9 787.5 437.8 785.7 439.6 785.2 440.5 784.8 442.1 783.7 443 783.4 443.5 782.8 445.9 783.6 446.4 784.2 447.1 784.6 448.1 784.6 449.5 784.3 449.5 783.9 448.7 783.4 448.6 783 449.1 782.8 450.2 783 451.2 783.4 452.1 784.3 453.5 784.6 454.3 784.7 454.9 784.6 456.5 784.3 458.4 784.3 459.2 785 459.9 785.6 459.5 786.1 459.8 786.6 460.4 787.1 460.7 787.5 460.6 788.8 460 789.4 459.9 790 460.2 789.9 460.9 789.3 462.5 789.3 463.5 789.4 464.1 790.2 465 791.6 466.3 791.8 466.8 791.8 468.4 792.1 469.7 793 470.7 793.3 471.3 792.7 471.5 792.2 471.9 792.1 472.7 792.2 473.6 792.5 474.2 791.6 474.8 790.1 475.2 781.7 479.1 773.1 480.9 769.9 482.3 766.2 484.7 761.8 480.8 757 478.1 753.2 476 751.6 477.1 749.4 474.4 745.1 470 741.1 467.3 737.6 466.6 736 462.9 734.1 461.9 732.5 463.2 731.9 467.6 728.4 470 724.1 472 721.3 474.7 720.8 474.1 720 474 719.3 473.5 718.9 472.1 718 471.3 713.8 469.4 710.4 466 711.7 463.6 713.6 461.8 717.3 457.1 720.1 451.5 722.1 448.4 724.5 445.7 730.8 442.8 733.2 439.4 735.8 441 737.3 446.9 741.3 448.2 746 443.2 748.9 441.7 755.4 440.6 762.4 438.1 765.7 437.7 769 437.8 771.2 436.3 771.9 433.3 771.5 431.4 771.6 429.4 777.3 428.2 783 428.3 789.1 430.6 793.2 434.2z" transform="translate(-709 -427)"/>
</svg>
