<svg xmlns="http://www.w3.org/2000/svg" width="92" height="100" viewBox="0 0 92 100">
    <path fill="#DDD" d="M46 0c-1.152 0-2.086.934-2.086 2.086v6.246c0 1.152.934 2.086 2.086 2.086 1.152 0 2.086-.934 2.086-2.086V2.086C48.086.934 47.152 0 46 0zM25.672 4.488c-.27.008-.543.075-.805.196-1.043.484-1.492 1.726-1.007 2.77l2.644 5.663c.355.758 1.106 1.203 1.89 1.203.297 0 .598-.062.883-.195 1.043-.488 1.493-1.723 1.008-2.77l-2.644-5.668c-.364-.78-1.153-1.226-1.965-1.199h-.004zm40.656 0c-.809-.027-1.602.418-1.969 1.2l-2.64 5.667c-.485 1.043-.036 2.282 1.007 2.77.286.133.586.195.88.195.784 0 1.535-.445 1.89-1.203l2.64-5.664c.485-1.043.036-2.285-1.007-2.77-.262-.12-.532-.183-.801-.195zM4.332 22.914c-2.297 0-4.164 1.871-4.164 4.168v45.832c0 2.297 1.871 4.168 4.164 4.168H8.5V22.914H4.332zm8.336 0v54.168h66.664V22.914H12.668zm70.832 0v54.168h4.168c2.297 0 4.164-1.87 4.164-4.168V27.082c0-2.297-1.867-4.168-4.164-4.168H83.5zM46 31.25c10.34 0 18.75 8.41 18.75 18.75S56.34 68.75 46 68.75 27.25 60.34 27.25 50 35.66 31.25 46 31.25zm0 4.168c-8.04 0-14.582 6.54-14.582 14.582 0 8.04 6.543 14.586 14.582 14.586 8.039 0 14.586-6.543 14.586-14.586S54.043 35.418 46 35.418zm-3.254 6.25c.426.008.852.113 1.25.313l10.797 5.468c1.016.516 1.637 1.551 1.629 2.704-.012 1.148-.656 2.172-1.676 2.664l-10.789 5.222c-.402.192-.836.293-1.266.293-.535 0-1.066-.152-1.539-.449-.875-.547-1.394-1.496-1.394-2.535V44.657c0-1.055.527-2.012 1.414-2.555.484-.297 1.031-.441 1.582-.43l-.008-.004zm1.168 4.946v6.816l6.883-3.332-6.883-3.484zm-15.445 39.07c-.813-.028-1.598.417-1.965 1.199l-2.644 5.664c-.489 1.043-.035 2.281 1.008 2.77.285.132.585.195.882.195.785 0 1.536-.446 1.89-1.203l2.645-5.665c.485-1.043.036-2.28-1.007-2.77-.262-.12-.536-.183-.805-.194l-.004.003zm35.062 0c-.27.007-.543.074-.805.195-1.043.484-1.492 1.723-1.007 2.77l2.64 5.663c.356.758 1.106 1.204 1.89 1.204.294 0 .594-.063.88-.196 1.043-.484 1.492-1.722 1.007-2.77l-2.64-5.663c-.363-.782-1.152-1.227-1.965-1.2v-.004zM46 89.585c-1.152 0-2.086.933-2.086 2.086v6.25c0 1.152.934 2.082 2.086 2.082 1.152 0 2.086-.93 2.086-2.082v-6.25c0-1.153-.934-2.086-2.086-2.086z"/>
</svg>
