<svg xmlns="http://www.w3.org/2000/svg" width="29" height="29" viewBox="0 0 29 29">
    <g fill="#357AEB">
        <path d="M25.11 3.75c.36.3.81.45 1.29.45 1.17 0 2.1-.93 2.1-2.1S27.57 0 26.4 0s-2.1.93-2.1 2.1c0 .24.03.45.12.66l-2.79 2.13c-.36-.24-.781-.39-1.231-.39-1.17 0-2.1.93-2.1 2.1 0 .27.06.51.12.72l-2.76 2.1c-.331-.27-.781-.42-1.26-.42-.39 0-.75.12-1.08.3l-3.031-3.27c.15-.269.21-.6.21-.93 0-1.17-.931-2.1-2.1-2.1-.96 0-1.74.63-2.01 1.5h-1.98c-.27-.87-1.05-1.5-2.01-1.5-1.17 0-2.1.93-2.1 2.1s.93 2.1 2.1 2.1c.96 0 1.74-.63 2.01-1.5h1.98c.27.87 1.05 1.5 2.01 1.5.39 0 .75-.12 1.05-.3l3.06 3.3c-.12.27-.21.6-.21.9 0 1.17.93 2.1 2.1 2.1 1.169 0 2.1-.93 2.1-2.1 0-.24-.031-.48-.12-.69l2.76-2.13c.36.269.78.419 1.26.419 1.169 0 2.1-.93 2.1-2.1 0-.27-.06-.51-.15-.75L25.11 3.75zM2.4 6c-.51 0-.9-.39-.9-.9s.39-.9.9-.9.9.39.9.9-.39.9-.9.9zm24-4.8c.51 0 .9.39.9.9s-.39.9-.9.9-.9-.39-.9-.9.39-.9.9-.9zM8.4 6c-.51 0-.9-.39-.9-.9s.39-.9.9-.9.9.39.9.9-.39.9-.9.9zm6 6c-.51 0-.9-.39-.9-.9s.39-.9.9-.9.9.39.9.9-.39.9-.9.9zm6-4.5c-.51 0-.9-.39-.9-.9s.39-.9.9-.9.9.39.9.9-.39.9-.9.9zM.3 28.2h4.2V9H.3v19.2zm1.2-12h1.8V27H1.5V16.2z"/>
        <path d="M6.3 28.2h4.2V9H6.3v19.2zm1.2-12h1.8V27H7.5V16.2zM12.3 28.2h4.2V15h-4.2v13.2zm1.2-6h1.8V27h-1.8v-4.8zM18.3 28.2h4.2V10.5h-4.2v17.7zm1.2-10.5h1.8V27h-1.8v-9.3zM24.3 28.2h4.2V6h-4.2v22.2zm1.2-15h1.8V27h-1.8V13.2z"/>
    </g>
</svg>
