<svg xmlns="http://www.w3.org/2000/svg" width="24" height="17" viewBox="0 0 24 17">
    <g fill="#0095DA">
        <path d="M2.23 10.2C.997 10.2 0 9.261 0 8.1S.997 6 2.23 6h18.94c1.233 0 2.23.939 2.23 2.1.001 1.161-.996 2.1-2.229 2.1H2.23zM21.171 4.2H2.23C.997 4.2 0 3.261 0 2.1S.997 0 2.23 0h18.94c1.233 0 2.23.939 2.23 2.1.001 1.161-.996 2.1-2.229 2.1zM21.171 16.2H2.23C.997 16.2 0 15.267 0 14.112S.997 12 2.23 12h18.94c1.233 0 2.23.933 2.23 2.088.001 1.154-.996 2.112-2.229 2.112z"/>
    </g>
</svg>
