<svg xmlns="http://www.w3.org/2000/svg" width="91" height="51" viewBox="0 0 91 51">
    <path fill="#FFF" stroke="#00368A" d="M11.542 0l-.232.234.03.322-.32.03L9.487 3.54l1.737 3.306.116.205-.116.234-2.23 4.242v.03l-3.04 5.53v.029l-3.795 6.26v.03L1 28.32l1.014 3.335 4.344-1.287h.058l6.11-.848h.117l.115.029 2.665 1.082v-.029s1.036.378 2.143.732c.554.176 1.14.337 1.593.468.227.065.401.11.55.146.15.036.29.059.232.059.165 0 .27.046.405.087.136.041.298.083.464.147.331.127.702.303 1.071.468.74.328 1.42.643 1.42.643l.057.03.03.029 3.243 2.428v-.498l.435-.028 2.461-.117h.377l.087.38s.113.528.231 1.14c.098.506.17.973.203 1.376.026.007.023.022.058.03.198.041.531.087.927.116.791.06 1.848.08 2.925.088 2.154.015 4.315-.058 4.315-.058h.203l.116.117.724.614 1.216-.673.087-.03.087-.028 2.954-.234 1.999-1.054-.55-.322-.29-.146.029-.292.231-2.136.058-.41H47.715l.116.205.811 1.258 1.65-1.17.58-2.546v-.087l.058-.088.463-.644-.637-2.136-.116-.321.319-.205 1.13-.702.028-.03 1.333-1.901.058-.088.492-1.141H50.293l-.058-.03-3.997-1.404-.029-.03h-.029l-4.2-2.135-4.343-2.253-5.04-2.604h-.029l-5.126-3.306-5.387-3.189-.029-.029-3.157-2.253h-.029l-4.199-3.189-.029-.03-.029-.028L12.005.995l-.057-.059-.03-.058L11.543 0zM59.09 25l-2.658 1.25-1.907 2.064.52 1.599.058.174-.115.175-1.85 3.517-.028.058-.058.058-1.531 1.657-.52 2.791 1.473 1.483.03.029 1.935 2.296.029.03 2.08 2.121.057.03 3.236 1.744.144.087.058.145.954 2.268L64.318 50l1.27-2.355.03-.087 1.126-3.663.607-2.005.029-.175.173-.087 3.38-2.006h.03l2.426-1.308.173-.058.174.029 1.502.349.086.029.058.029 3.322 2.006 2.052-.495 2.802-1.424h.029l2.397-1.163h.03l3.408-1.976.578-2.675c-.59-.144-3.455-.848-4.247-1.075-.778-.224-4.073-1.047-4.073-1.047l-6.876-1.512-.028-.029h-.03l-5.142-1.744v-.029h-.028l-5.2-2.18L59.089 25zM50.8 44l-.801.112.77 1.983.031.028 1.314 1.62.064.028v.028l1.218.978 1.41.223.193-1.872-1.891-1.48-.032-.028-2.02-.754-.352-.14.032-.335.064-.391z"/>
</svg>
