<svg xmlns="http://www.w3.org/2000/svg" width="84" height="74" viewBox="0 0 84 74">
    <path fill="#FFF" stroke="#00368A" d="M44.99 1l-.25.513-.033.066-.067.033-1.03.628c-.014.027-.033.05-.049.1-.009.027-.016.037-.017.05.076.06.154.137.266.247.127.124.289.268.432.414.286.29.548.562.548.562l.05.066.016.066.233 1.141.033.199-.183.082-1.295.645-.033.017-2.093 1.455h-.016l-1.428.86h-.017l-3.354 1.604-.017.016c-.018.01-.333.174-.68.364-.18.098-.36.202-.516.281-.077.04-.139.072-.199.1-.06.027-.097.048-.166.066.031-.008-.13.06-.282.132-.153.071-.349.157-.532.248-.365.182-.697.364-.697.364l-1.677 1.24v.017h-.017l-.996.661-.067.05h-.066-4.135c-.105 0-.568.104-.946.231-.36.122-.652.237-.681.248l-.033.017-.964.512-.066.017H23.9l-3.04-.033h-.05l-.049-.033-1.893-.844-.066-.033-.034-.033-.714-.81-.58-.413-1.927.215h-.017l-1.594.28-.083.017-.083-.033-1.08-.612-.016-.016-1.511-.695-1.08-.529-.714.066-.481.992-.017.033v.017l-.564 2.133v.05l-.034.033-.797 1.174-.016.016-.017.017-.814.86-.05.066-.099.017-1.877.215-.066.016-1.245.546h-.017l-1.411.694-.864.447.664 1.885v.017h.017l.266 1.074c.033.038.113.123.265.248.182.15.418.282.532.282.379 0 .66.24.88.446.151.142.205.207.265.281.09-.001.673-.003 1.329-.248.736-.275.905-.47 1.345-.579.17-.042.473-.13.764-.215.291-.084.574-.165.83-.165.173 0 .375.053.664.116.29.063.63.148.964.231.64.16 1.182.302 1.228.314l2.973-.644.066-.017.067.017 3.32 1.041 2.874 1.026h.016l3.488.099h.132l.083.116 1.23 1.786.016.016.016.033 1.096 2.646c.067.033.435.217.93.48.538.285 1.107.597 1.395.826.458.365 1.412 1.042 1.412 1.042l.299.199-.283.215-2.291 1.835 1.793 3.126v.016l1.146 2.365v.016l1.229 3.11.016.016v.016l.764 2.646.017.066-.017.083-.847 2.762.449 1.653 1.278 1.274.083.082-.016.132-.183 1.423-.016.132-.117.066-2.291 1.224v.016h-.017l-2.408 1.026-1.66 2.067 1.91 1.19.066.033.033.066.93 1.87.863 1.62 2.358.248 2.475-1.042.05-.033H38.147l.05.033 2.906 1.455.05.017 2.441.76 3.87-1.29 2.64-2.497.05-.05.066-.016 1.777-.496 2.075-2.298.532-1.571.066-.232.233.05 2.109.364 1.112-1.72.117-.199.215.1 2.823 1.34.017.016.033.016 4.982 4.068.83-.744v-.017l.565-.926.1-.182.199.067 1.245.38.15.05.033.165.083.546 1.03.694.05.017.033.05 1.328 1.984.017.033v.016l.58 1.522.017.066-.016.083-.465 1.984-.017.066-.066.066-.482.48.183 2.794 1.046 1.34.963.463.316-1.82.066-.363.316.182 1.229.661.05.017.033.05 1.328 1.703.033.033.017.033.465 1.224.033.082-.017.067-.265 1.223.88 1.224.033.033.399-.248.93-1.918 1.03-2.167v-.016l.248-1.39-.498-1.438-1.395-1.405-.166-.166.133-.182 1.245-1.604.034-.05.05-.032 2.424-1.307.332-.496-2.258-.926-.034-.017h-.016l-1.146-.76-.017-.017-.033-.033-1.644-1.835h-.016l-2.06-1.224-.05-.033-.016-.033L74 53.718l-.017-.016-.017-.017-1.013-1.736-1.096-.827-.116-.082v-2.101l-1.046-.959-.05-.033-.016-.066-.482-1.323-.017-.066.017-.083.448-2.1-.348-1.472-1.893-1.256-.05-.033-.033-.05-.532-.893-.033-.05-.996-.992-.083-.083V38.058l.05-.066 1.577-2.216.266-1.14.199-3.308v-.05l.017-.05.763-1.421.449-2.564.033-.215.216-.016 3.238-.182 2.209-1.654h.033l1.013-.628-.648-1.306-.016-.033v-.05l-.283-1.885-.016-.017v-1.984l.05-.066 1.41-2.266 1.446-2.447-2.342-.76h-.016l-.017-.017-1.926-1.01-2.458-.561h-.017l-2.308.099-.996 1.009-.365 1.074-.05.15-.15.032-1.046.182-.133.017-.1-.083L65 13.022v-.016L63.571 11.6l-.033-.033-.017-.033-.564-1.042-.034-.05v-.05l-.083-1.388-2.54-1.522-.017-.016-.016-.017-.864-.76-.066-.067-.017-.099-.183-1.405-.016-.116.05-.083.88-1.24-1.545-.182h-.033l-.017-.017-1.328-.463-.017-.016h-.016l-1.511-.711h-.017l-.017-.017-.88-.595-.033-.017-1.179-.611L44.99 1z"/>
</svg>
