<svg xmlns="http://www.w3.org/2000/svg" width="78" height="70" viewBox="0 0 78 70">
    <path fill="#FFF" stroke="#00368A" d="M36.095 1l-1.021.517h-.02l-.042.02-2.125.558-1.895 1.323-1.52.991-.084.062h-.083l-1.396.083-2.062.95-.041.021-1.167 1.116-.041.02-.042.021-1.895.91.291.35.084.125-.021.124-.104.847.75.372h.041l.042.04 1.77 1.53.083.062.021.083.48 1.425.02.083v.062l-.375 2.025-.02.165-.167.083-2.125.868-.291.867-.125.868v.082l.125.89.77.97h4.02l.083.083 1.292 1.054h.02l2 1.405.167.124-.021.207-.25 1.405-.02.227-.23.041-2.333.579-.041.02-1.958.806h-.021l-.875.434.208.413.042.083V28.088l-.042.083-.833 1.302-.145.206-.23-.062-1.666-.475h-.02l-1.458-.454-.834.227h-.02l-1.438.826-.312 2.707 1.5 1.075h.02l2.27 1.9.084.063.02.103.709 2.48.02.04V39.062l.959.846.062.062.021.083.292.826 4.853-.227h.125l.083.062.916.64.292-.433.146-.228.25.104 1.54.578.21.083v1.322l-.084.083-.937.93-.021.02-.688.806-.104.104-.145.02-2.375.124h-.083l-.063-.041-1.166-.517-1.375.972-.062.04h-.083l-2.5.249h-.062l-4.749-.248H18.766l-1.062-.372-.209-.062-.02-.207-.104-1.219-.98-.351-1.166.579-.666 2.913-.125.578-.438-.413-1.062-1.054-.104-.103v-.165l.125-1.984-.354-.434-.937-.723-.25-.186.166-.248.521-.806-.437-.268-.146-.104V39.123H13.58l.062-.765-1.083-1.302-.02-.02-.021-.021-.833-1.55-.021-.02v-.021l-.708-1.88-.688-1.881-2.562-1.054-.541.372-.042.02-.02.021-1.396.538-.292 1.818.688 1.57v.042l.02.02.438 2.356 1.083.868.02.02 2.48 1.757.145.103v.186l-.125 2.231-.02.31H9.1l-.874 1.715-.041.104-.125.041-1.48.682-.062.041-1.603 1.137-.063.04-.083.022-1.312.227-.313.062-.062-.31-.209-.971-.666-.145L1 46.767l1.604 1.798.354-.29.146-.103.187.062 1.666.579.021.02.02.021 2.396 1.405.02.02.022.022L9.33 51.83l.125.103v.165l-.104 1.922 1.041.103h.063l1-.103.312-2.686.042-.29H17.495l.105.145.833 1.178h.02l1.292 2.025.02.02.022.021.937 2.128.02.042.021.04.292 1.902.77-.372.084-.062.104.02 3.582.476h.084l.083.062 1.895 1.529 2.396 1.839.041.02 2.812.93 1.437.475.23.062V67.264l-.043.062-.374.95 1.041.331 1.104.393 1.958-.29c.06-.07.587-.69 1.208-1.404.327-.378.677-.752.958-1.054.14-.151.248-.29.354-.393.106-.103.168-.156.312-.227.02-.01.178-.132.354-.269.176-.136.385-.31.583-.475.397-.33.75-.64.75-.64l.084-.062.104-.021 1.624-.145c.418-.036.85-.083 1.208-.103.179-.01.324-.02.458-.02.134-.002.242-.002.354.02.273.054.407.219.604.393.198.173.41.385.625.599.216.214.42.415.604.578.185.164.38.285.396.29.184.06.995.247 1.708.392.669.137 1.197.234 1.27.248l6.04-.33h.021l1.833-.806.063-.02h.062s.677.009 1.395.04c.36.016.738.043 1.042.062.304.02.493.02.666.062.118.03.562.114.938.166.332.046.56.074.624.082h.084l2.332-.33h.021l1.375-.537.916-1.158.021-.02.958-2.335.042-.062.042-.062.583-.579.145-.144.188.062 1.229.413h.041v.02c.04.008.962.163 2.083.848.475.29.725.246.896.165.17-.081.25-.207.25-.207l.479-1.136.812-1.9-.167-1.82-1.166-1.92-1.958-1.22h-.02l-1.75-1.28h-.042l-1.645-.497-4.707-.248-.208-.02-.084-.186-.416-.91-1.02-2.417-2.334-.31h-.02l-.021-.02-1.875-.476-2.374-.145-.312 3.265v.083l-.063.082-.916 1.24-.188.248-.25-.145-1.52-.93-.063-.04-.041-.063-.833-1.24-1.438-2.004-.02-.04-.021-.042-.542-1.633-1.833-1.074h-.02l-2.5-.579-.062-.02-.042-.02-2.02-1.344-.042-.02-.02-.042-1.688-1.818-1.353-1.095-2.166-.476-.021-.02h-.021l-2.52-.744-.125-.041-.063-.124s-.211-.408-.479-.868-.637-.988-.791-1.116c-.234-.193-.303-.488-.313-.744-.01-.255.048-.502.105-.744.095-.406.207-.661.25-.764l-.459-1.53-.02-.061-.896-1.736-.021-.041-1.625-1.756-.062-.083-.02-.083-.334-2.087-.02-.165.103-.124 1.062-1.136.021-.021 1.583-2.314.063-.104.125-.02 2.436-.6h.042l2.853-.413 2.729-.496 2.374-1.425 1.354-2.19-.083-1.736-.563-1.385-.02-.04-.021-.063-.25-3.41V7.737l-.48-1.033v-.02L43.76 5.111l-.062-.103-.021-.104-.063-1.55-.208-.082-3.499-1.157h-.042l-2.561-.579h-.042l-.042-.02L36.095 1z"/>
</svg>
