<svg xmlns="http://www.w3.org/2000/svg" width="84" height="58" viewBox="0 0 84 58">
    <path fill="#FFF" stroke="#00368A" d="M74.692.875l-1.876.852-3.437 2.262-.08.053-.131.027-4.362.213H64.7l-.08-.027-2.986-1.091.211-.586-.238.4-.105.213h-4.098l-1.77.718-.054.027-.079.026-3.727.107-2.459.106h-.132l-.106-.053-2.67-1.464-1.136.08-1.163 2.076-.053.107-.106.053-.317.186.29.16.952.133h.053l1.85.426.08.026.08.054 1.057.851 1.348 1.038.105.08.053.133.344 1.012.106.372-.344.16-2.458 1.038-1.058 1.33-.053.08-.079.054-1.93.905-.079.053h-.106s-4.343.027-4.784.027c-.213 0-.376-.064-.555-.133-.18-.07-.363-.155-.53-.24-.332-.17-.607-.32-.607-.32s-.393-.25-.82-.505c-.427-.255-.942-.546-1.03-.586.002.002-.286-.094-.609-.186-.322-.092-.736-.186-1.136-.293-.4-.106-.777-.214-1.084-.292-.262-.068-.422-.094-.476-.107h-.026c-.074.026-.187.052-.318.107-.26.109-.61.27-.951.425-.34.156-.686.303-.952.426-.133.062-.228.12-.317.16-.044.02-.1.04-.132.053-.033.014-.032.035-.106.053-.066.017-.068-.004-.106 0-.037.005-.104.021-.158.027-.11.012-.253.01-.423.027-.34.032-.772.073-1.216.106-.445.034-.882.067-1.243.08-.18.007-.345.003-.475 0-.066-.001-.129.006-.185 0-.057-.006-.106-.008-.212-.053.024.01-.253-.086-.582-.187-.328-.1-.755-.225-1.163-.346-.815-.242-1.586-.479-1.586-.479l-4.917-1.277-6.106-.56h-.053l-.053-.026-2.802-.958L5.62 9.472l-.08.106-2.563 3.86-.027.026-.026.054-1.454 1.437.476 2.236.026.053v.026l.211 3.753.952 3.114v.027l1.771 2.901.027.053v.027l.951 2.928.027.053v.08l-.106 3.353 1.427 2.742.027.053L8.87 38.67l5.763 2.528.132.053.08.134 1.691 3.007 1.243 1.41 5.366.214 2.273-.932.397-.16.159.373 1.057 2.582.026.026v.054l.608 2.714 1.64 2.45 1.85 1.33 1.93-.878.105-.054.106.027 3.436.32h.106l.08.08 2.537 1.783.027.026 4.044 1.118h2.644l1.691-1.224v.026l1.375-1.304 1.692-4.551.053-.107.105-.08 2.247-1.517 2.829-1.676 1.03-1.225.107-4.924.026-.426h.423l2.458.107.133.026.132.08 2.167 1.89.053.053.899.533h8.433l.581-1.118.027-.053.581-1.491V36.54l-.37-1.304-.026-.08-1.031-1.97-.053-.052v-.08l-.397-2.901-.502-.799-.106-.186.053-.187.635-2.022.052-.107.08-.08 3.7-3.54.027-.026 1.137-2.236v-5.483l.026-.053 1.295-3.78.027-.053.026-.053 2.564-3.327.08-.106.106-.054 2.828-1.038v-.026l.106-.027-.027-1.065-.211-.931-2.01-.612h-.052l-.026-.027-4.177-2.156L74.692.875z"/>
</svg>
