<svg xmlns="http://www.w3.org/2000/svg" width="51" height="35" viewBox="0 0 51 35">
    <g fill="#FFF">
        <path d="M30.324 17.924l-7.596 4.387c-.152.088-.34.088-.49 0-.152-.088-.246-.25-.246-.424v-8.774c0-.173.094-.336.246-.423.15-.088.338-.088.49 0l7.596 4.386c.152.086.246.248.246.424s-.094.338-.246.424z"/>
        <path d="M33.313 3.438c5.023 0 9.665 2.68 12.177 7.03 2.514 4.352 2.514 9.712 0 14.063-2.512 4.352-7.154 7.031-12.178 7.031H17.688c-5.024 0-9.666-2.68-12.178-7.031-2.514-4.352-2.514-9.711 0-14.062 2.512-4.352 7.155-7.031 12.178-7.031h15.625m0-3.126H17.687c-6.14 0-11.814 3.276-14.885 8.595-3.07 5.318-3.07 11.869 0 17.187 3.07 5.319 8.745 8.594 14.886 8.594h15.625c6.14 0 11.814-3.275 14.884-8.594 3.071-5.319 3.07-11.869 0-17.188C45.127 3.589 39.453.313 33.313.313z"/>
    </g>
</svg>
