<svg xmlns="http://www.w3.org/2000/svg" width="18" height="16" viewBox="0 0 18 16">
    <path fill="#015BA6" d="M9.607 0C5.077.056 1.36 3.624 1.36 8c0 1.394.378 2.732 1.046 3.875-.174.418-.436.808-.755 1.17-.203.223-.436.418-.726.586-.262.167-.552.334-.871.446-.088.028-.058.111.029.139.116.056.203.084.32.14.202.083.435.139.667.195.378.111.784.167 1.22.167.435.028.871-.028 1.278-.084.377-.056.755-.14 1.103-.25C6.064 15.386 7.807 16 9.694 16 14.283 16 18 12.404 18 8c0-4.432-3.746-8.028-8.393-8zm.03 12.627c-.466 0-.872-.39-.872-.836 0-.446.377-.836.871-.836s.871.334.871.808c0 .502-.348.864-.87.864zm1.51-4.488c-.291.251-.61.502-.669.92 0 .279-.029.613-.029.92 0 .167-.058.223-.232.223H8.939c-.116 0-.174-.056-.174-.167-.03-.613-.03-1.394.232-1.951.349-.725 1.162-.92 1.627-1.561 1.161-1.533-1.772-2.537-2.382-.67-.087.28-.116.28-.406.251-.378-.055-.755-.083-1.133-.139-.145-.028-.203-.056-.174-.195.232-2.397 3.746-3.066 5.43-1.645.494.419.843 1.06.843 1.7 0 1.004-.93 1.701-1.656 2.314z"/>
</svg>
