<svg xmlns="http://www.w3.org/2000/svg" width="66" height="48" viewBox="0 0 66 48">
    <path fill="#FFF" stroke="#00368A" d="M396.5 182.8L396.2 183.9 394.5 188.1 395.4 191.6 399.3 192.4 399.5 194.6 398.3 196.8 398 199.1 397.1 199.3 394.2 199.4 392.5 198.5 390.4 198.1 389.5 198.7 389.9 200.2 390.6 200.4 391.2 200.8 387.8 204.5 385.8 214.8 383.6 219 380.6 221.1 377.2 221.9 375.6 222.8 373.9 223.5 370.2 223.8 363.1 221.2 359.5 221.9 349.9 225.5 346.8 225.7 343.9 224.8 344.3 222.1 344.3 216 344.8 215.7 346 215.1 346.5 214 346.9 213.7 348.1 213.4 348.6 213.5 349.5 213.9 350.2 214.7 350.6 216 351.1 216 361.2 213.7 367.2 213.4 369.1 214.2 370.1 214.2 370.9 212.9 370.4 211.3 368.4 211 364.1 211.5 363 212 362.4 212 361.8 211.7 360.7 210.7 360.4 210.5 359.6 210.4 357.7 209.7 356.7 209.6 344.3 210.1 343.3 210.4 342.5 211.1 341.6 211.5 340.6 211 340.1 210.5 339.7 209.3 339.1 209.1 339.9 208.6 339.7 207.9 339.3 207.4 338.4 206.8 338.2 207.2 337.7 206.8 337.2 207.2 336.6 207.4 335.2 207.7 335.2 207.3 335.7 207.2 336.1 206.9 336.2 206.5 336.3 205.8 336.8 206.1 337.3 205.8 336.7 204.9 335.7 203.6 335.2 203.2 337 200.9 339.7 198.6 341 197.9 343.2 195.7 345.5 194 348.2 194.3 350.7 196.4 352.3 199.8 353.8 201.1 355.7 200.9 356.6 199.3 357 197.6 360 195.5 363.4 194.2 366.2 192.6 367.7 189.1 367.5 186.9 367 184.8 366.9 184.2 368.1 184.3 381.2 184.7 382.7 184.5 383.5 184.1 384.7 183.3 385.4 183.1 385.9 182.7 386.6 181.3 387 181.7 387.6 181.1 388.2 180 388.8 179.7 389.5 180.3 391.6 180.7 393.4 182.1 396.5 182.8z" transform="translate(-334 -179)"/>
</svg>
