<svg xmlns="http://www.w3.org/2000/svg" width="95" height="82" viewBox="0 0 95 82">
    <path fill="#FFF" stroke="#00368A" d="M593.9 127.7L594.1 131.7 592.6 135.8 590 139 589.9 141.3 593.3 142.6 595.2 142.6 597.4 142.8 600.6 143.7 606.9 144 610.4 145 613.3 148.9 611.5 153.6 609.8 154.8 608.2 156.3 607.2 158.6 606.7 161.3 607.1 162.6 607.6 164 607.2 173.1 604.5 173.7 602.7 176.3 601.2 180.1 600 181.6 597.6 183.8 595.8 188.3 594 190.5 593.4 191.9 594.4 194.5 595.5 194.9 597.2 196.8 596 200.2 588.6 203.3 584 204.3 581.9 204.2 579.7 203.7 578 202.5 576.3 200.9 573.3 199.8 571.3 196.5 571.9 194.4 573.3 192.9 574.9 190.7 574.3 188 573.5 187.5 571.8 188.1 563.3 192.7 559.3 193.4 553.8 196.7 551.8 197.4 549.4 196.6 547.4 194.3 542.7 191.2 536 190.4 535.3 189.8 534.1 188.2 533.6 187.3 532.5 185.7 529.7 184.5 526.8 184 525.8 176.6 526.3 174.2 528.6 171 531.4 168.3 536.5 167.2 535 163.8 533.5 157.6 529.8 154.8 525.9 156.1 522.8 156.6 521 154.6 520.5 149.6 523.9 147.2 522 142.1 520.5 139 520 134.8 521.5 134.4 522.4 133.9 523 134.2 526.6 133.2 528.5 132.4 530.9 130.8 539.1 128 547.4 123.6 549.3 123.5 553.1 124.2 558.7 124.2 559.8 124.4 562.5 125.4 573.6 126.5 574.5 126.2 576 126.7 582.8 126.2 593.9 127.7z" transform="translate(-519 -123)"/>
</svg>
