<svg xmlns="http://www.w3.org/2000/svg" width="45" height="74" viewBox="0 0 45 74">
    <path fill="#FFF" stroke="#00368A" d="M580.7 245.2L581.3 248.4 583.5 253.3 584.8 254.6 586 254.8 587 255.9 587.2 257.4 587.9 259.4 587.7 261.6 586.7 263.3 585.3 266.1 585.3 269.6 585.8 270.9 586.1 272.4 585.9 273.8 586.4 275.2 578.1 283.2 575.7 290.2 572.1 295.9 563.7 302.7 557.8 313 553.7 304.9 551.6 295.2 550.2 292.6 546 287.6 544.7 281.8 546.3 276.1 547.6 270.3 549.9 264.5 553.8 262.9 559.8 262.2 560.5 258.3 560.1 254.2 560.1 249.6 560.8 245.7 561.5 240.1 575.9 244.7 580.7 245.2z" transform="translate(-544 -239)"/>
</svg>
