<svg xmlns="http://www.w3.org/2000/svg" width="52" height="56" viewBox="0 0 52 56">
    <path fill="#FFF" stroke="#00368A" d="M534.1 188.2L531.9 193.8 526.8 196.6 521.7 196.1 519.9 197.2 517.4 201.7 511.2 206.7 505.8 209.2 506 207.4 504 203.8 498 200.8 495.6 199.3 494.1 199 492.9 198.2 492.9 196.3 493.1 194.4 488.7 193.4 486.1 193.3 486.1 187.1 487.8 181.5 488.7 177.9 490.6 175.6 493.3 171.7 499 172 504.5 170.6 510.8 165.2 513.1 160.2 516.1 159.3 521 154.6 522.8 156.6 525.9 156.1 529.8 154.8 533.5 157.6 535 163.8 536.5 167.2 531.4 168.3 528.6 171 526.3 174.2 525.8 176.6 526.8 184 529.7 184.5 532.5 185.7 533.6 187.3 534.1 188.2z" transform="translate(-485 -154)"/>
</svg>
