<svg xmlns="http://www.w3.org/2000/svg" width="78" height="59" viewBox="0 0 78 59">
    <path fill="#FFF" stroke="#00368A" d="M797.1 197.5L797 197.8 797.2 200.2 796.4 202.3 795.3 203.6 794.4 205.3 794.4 207.5 795.3 209.4 795.6 211.7 795.3 214.1 795.5 216.4 795.3 218.7 794.6 220 794.4 221.9 799.4 227.5 797.9 228.8 796.1 229.6 793.7 229.9 791.6 230.4 791 231.2 790.9 233.2 791.4 234 791.2 235.2 790.1 235.9 785.8 235.7 783.9 237.1 782.3 239.2 780.8 240.4 779 240.6 775 237.4 772.1 231.8 771.2 227.6 769.5 224.3 762.4 223.9 750.5 215.5 747 215.2 743.4 215.7 739.7 215.4 736.2 214 733.6 212.3 729.2 210.8 726.3 209 724 208.5 723.3 208 722.7 206 723.6 204.1 724.7 203.8 725.8 203.3 728 203.1 730.1 202.4 732 201.3 732.8 200.7 734.8 198.4 739 196.1 741.2 191.8 744.1 188.6 746.9 184.9 746.9 184.5 752.7 184.4 754.6 184.9 755.8 186.1 756.4 186.4 757.5 186.7 758.7 186.9 759.6 187.1 760.9 188.6 761.8 189.3 763.9 190 764.1 190.3 765.3 191.7 766.4 192.1 768.4 191.8 769.3 192.1 769.6 191.7 770.3 191.4 770.7 191.2 771.1 190.6 771.8 188.8 772.4 187.6 773.2 186.5 774 185.6 775 184.9 775.4 186.1 776.3 186.7 777.3 186.7 778.2 185.9 778.5 186.4 779.9 186.2 779.9 190.5 780.9 191.7 783.5 193 784.3 193.6 784.8 194.3 785.7 195.9 787.7 195 790.2 195.3 796.5 197.4 797.1 197.5z" transform="translate(-722 -183)"/>
</svg>
