<svg xmlns="http://www.w3.org/2000/svg" width="103" height="64" viewBox="0 0 103 64">
    <path fill="#FFF" stroke="#00368A" d="M486.1 193.3L488.7 193.4 493.1 194.4 492.9 196.3 492.9 198.2 494.1 199 495.6 199.3 498 200.8 504 203.8 506 207.4 505.8 209.2 505.6 211.2 504.8 215 502.9 215.8 501.4 217.2 501.2 220.9 503.2 226.4 502.3 228 500.4 230.1 499 232.6 494.8 234.9 487.6 233.8 485.4 234.5 483.2 236 477.1 237.5 473.5 239.2 469 240.2 462.5 240.1 460.5 240.3 455.8 242.2 454.1 242 452.5 241.4 451 241.2 449.8 240.6 448.1 238.7 439.3 239.7 434.7 236.9 429.8 235.2 428.5 236.6 428 239.2 428.2 243.3 426.6 246.8 422.3 249.3 419.1 253.6 415.7 253 412.6 251.8 410.6 249.4 407.4 243.7 406.7 240.7 407.7 238.2 406.5 235.8 405.4 234.4 405.1 232.6 405.7 231.9 406.5 231.4 408 227.2 410.1 224 413.7 224.1 417.1 222.5 417.7 220.5 417.4 218.3 417.2 216.1 420.5 213.5 424.8 215 433.3 214.8 439.2 217.3 444.2 216.7 448.2 213.7 450.1 208.6 450.3 205 452.9 203.1 459.6 201.9 464.4 200.8 467 197.8 467.9 191.8 471.7 192.1 474.9 193 486.1 193.3z" transform="translate(-404 -191)"/>
</svg>
