<svg xmlns="http://www.w3.org/2000/svg" width="171" height="171" viewBox="0 0 171 171">
    <path fill="#FFF" stroke="#00368A" d="M554.8 354.8L553.8 356.7 550.8 360.1 549.6 362.3 548.9 367.6 547 370.4 545.8 373.9 545.5 376.4 544.7 378.7 544.3 384.1 546.2 389.2 546.9 389.7 547.4 390.4 547.8 393.2 548.6 395.7 552.1 400 554.3 402.1 556.5 402.2 562.7 400.8 570.9 400.2 575 400.4 579.1 399.4 583.1 397.8 587 396.9 590.9 397.5 591.6 400.9 593.4 403.6 595.9 404.6 598.3 405.9 600.3 408.8 602.1 412 604.1 414 605.8 416.3 606.4 420.1 605.2 423.5 604 424.9 603.2 426.6 602.9 429.6 602.9 431.5 604.9 434.4 606.2 435.4 608.1 437.6 609.3 440.4 608.7 442.5 607.7 443.2 605 444.1 603.4 445 601.1 447.2 598.1 448.7 593.6 450.3 592.2 451.1 590.4 453.3 589.1 450.7 585.6 444.8 578.3 436.9 572.4 430.4 571.3 426.2 571.4 425.2 571.1 422 568.9 421.2 563.8 421 561.4 422.5 559.9 424.5 557.3 427.9 552 429.9 543.9 430.4 536.1 431.4 531.2 433.4 522.3 443.3 516 451.9 511.1 458.4 509.8 462.7 510.1 465 513.3 466.5 516.4 466.7 517.2 468.5 517 470.4 515.4 472.9 508 480.3 502.1 484.7 502.5 480.3 501.7 476 500.6 474.4 498.9 474 496.5 473.8 494.3 473 493.5 471.2 494.1 469.2 495.4 468.2 495.2 466.2 493.5 465.1 491.5 464.3 488 461 486.5 459.9 485 458.5 482.7 455.2 480.1 452.4 476.4 449.9 473.1 446.7 468.7 443.9 455.3 441.1 450.1 441.1 447.9 440.2 445.8 438.5 444.6 437.2 443.5 435.8 444.9 432.1 445.4 428.2 444.7 425.8 443.4 423.8 443.4 421.5 445.6 420.8 447.3 418.7 447.6 415.6 449.7 412.1 449.6 407 448.4 401.8 449.5 397.5 451.2 396.4 454.9 395 458.2 392.9 458.6 390.7 454.8 387.4 453.6 385.6 451.8 384.9 448.2 381.9 445.1 377.7 441 374.4 439.5 369.5 448.7 363.5 452.7 359.3 457.2 353.3 457.4 351.8 457.2 350.5 457.1 349.1 457.9 345.6 459.5 342.4 463.5 335.8 463.9 333.1 463 332.5 461.4 330.9 461.9 329.2 462.6 324.7 465.7 325.1 469.8 324.4 470.6 323.3 470.9 321.4 471.1 319.4 473.4 320.4 475.6 321.8 483.1 328 485 328.6 490.4 327 493.1 326.7 497.5 328.2 499.2 329.1 501.1 330.9 503.3 331.1 506.4 328.6 509.7 327 513.6 328.7 516 327.3 517.9 324.8 523.2 320.4 525.7 321.2 528.7 323.5 531 323.9 531.7 322.6 532.2 319.1 532.7 317.4 533.7 316 535.9 316 538.2 317.7 539.1 318.2 542.1 319.2 547.2 322.9 550 329.4 550.3 333 550 336.7 549.4 340.6 549.6 344.4 550.7 347.2 552 349.7 553.7 352.1 554.8 354.8z" transform="translate(-439 -315)"/>
</svg>
