<svg id="White" xmlns="http://www.w3.org/2000/svg" viewBox="0 0 266.89 266.89"><defs><style>.cls-1{fill:#fff;}</style></defs><title>facebook</title><path id="White-2" data-name="White" class="cls-1" d="M887.72,112.55H650.28a14.74,14.74,0,0,0-14.73,14.73V364.72a14.74,14.74,0,0,0,14.73,14.73H778.11V276.09H743.33V235.81h34.78v-29.7c0-34.48,21-53.25,51.81-53.25A285.15,285.15,0,0,1,861,154.45v36H839.67c-16.73,0-20,7.94-20,19.61v25.71h39.88l-5.19,40.28H819.71V379.45h68a14.74,14.74,0,0,0,14.73-14.73V127.28A14.74,14.74,0,0,0,887.72,112.55Z" transform="translate(-635.55 -112.55)"/></svg>